# xmcd CD database file
#
# Track frame offsets:
#	150
#	14826
#	17301
#	18516
#	22300
#	23048
#	26200
#	30495
#	31734
#	34044
#	41876
#	44748
#	46714
#	49675
#	50443
#	51968
#	52763
#	55756
#	57758
#	60084
#	62540
#	80504
#	126041
#	126417
#	126793
#	127169
#	127545
#	127921
#	128297
#	128673
#	129049
#	129425
#	129801
#	130177
#	130553
#	130929
#	131305
#	131681
#	132057
#	132433
#	132809
#	133185
#	133561
#	133937
#	134313
#	134689
#	135065
#	135441
#	135817
#	136193
#	136569
#	136945
#	137321
#	137697
#	138073
#	138449
#	138825
#	139201
#	139577
#	139953
#	140329
#	140705
#	141081
#	141457
#	141833
#	142209
#	142585
#	142961
#	143337
#	143713
#	144089
#	144465
#	144841
#	145217
#	145593
#	145969
#	146345
#	146721
#	147097
#	147473
#	147849
#	148225
#	148601
#	148977
#	149353
#	149729
#	150105
#	150481
#	150857
#	151233
#	151609
#	151985
#	152361
#	152737
#	153113
#	153489
#	153865
#	154241
#	154617
#
# Disc length: 2065 seconds
#
# Revision: 0
# Processed by: cddbd v1.5.2PL0 Copyright (c) Steve Scherf et al.
# Submitted via: CDex 1.70beta2
#
DISCID=a9080f63
DTITLE=Godstomper - Hell's Grim Tyrant
DYEAR=2001
DGENRE=Power Violence
TTITLE0=Giving Up On Humanity (intro)
TTITLE1=Symptoms Don't Appear
TTITLE2=Mountain View Cops Suck
TTITLE3=Semen In The Eye Of Seth Putnam
TTITLE4=Straight Edge Massacre
TTITLE5=Wasted Life
TTITLE6=Eat Me, I'm A Carrot
TTITLE7=Real Suffering
TTITLE8=Keeping It Real
TTITLE9=Punishment Due
TTITLE10=International Audio Corporate Takedown
TTITLE11=Killing For Exxon
TTITLE12=Burn This!
TTITLE13=Damage Is Good
TTITLE14=Assuck Is Dead
TTITLE15=Emo Purgatory Is An Empty Paper Cup
TTITLE16=I'm Not Straight Edge
TTITLE17=Dead Pets
TTITLE18=Misery Index (instru)
TTITLE19=Devestation Now!
TTITLE20=Hell's Grim Tyrant (outro)
TTITLE21=Live @ 924 Gilman St. Dec. 31, 2000
TTITLE22=silence
TTITLE23=silence
TTITLE24=silence
TTITLE25=silence
TTITLE26=silence
TTITLE27=silence
TTITLE28=silence
TTITLE29=silence
TTITLE30=silence
TTITLE31=silence
TTITLE32=silence
TTITLE33=silence
TTITLE34=silence
TTITLE35=silence
TTITLE36=silence
TTITLE37=silence
TTITLE38=silence
TTITLE39=silence
TTITLE40=silence
TTITLE41=silence
TTITLE42=silence
TTITLE43=silence
TTITLE44=silence
TTITLE45=silence
TTITLE46=silence
TTITLE47=silence
TTITLE48=silence
TTITLE49=silence
TTITLE50=silence
TTITLE51=silence
TTITLE52=silence
TTITLE53=silence
TTITLE54=silence
TTITLE55=silence
TTITLE56=silence
TTITLE57=silence
TTITLE58=silence
TTITLE59=silence
TTITLE60=silence
TTITLE61=silence
TTITLE62=silence
TTITLE63=silence
TTITLE64=silence
TTITLE65=silence
TTITLE66=silence
TTITLE67=silence
TTITLE68=silence
TTITLE69=silence
TTITLE70=silence
TTITLE71=silence
TTITLE72=silence
TTITLE73=silence
TTITLE74=silence
TTITLE75=silence
TTITLE76=silence
TTITLE77=silence
TTITLE78=silence
TTITLE79=silence
TTITLE80=silence
TTITLE81=silence
TTITLE82=silence
TTITLE83=silence
TTITLE84=silence
TTITLE85=silence
TTITLE86=silence
TTITLE87=silence
TTITLE88=silence
TTITLE89=silence
TTITLE90=silence
TTITLE91=silence
TTITLE92=silence
TTITLE93=silence
TTITLE94=silence
TTITLE95=silence
TTITLE96=silence
TTITLE97=silence
TTITLE98=untitled
EXTD=YEAR: 2001
EXTT0=
EXTT1=
EXTT2=
EXTT3=
EXTT4=
EXTT5=
EXTT6=
EXTT7=
EXTT8=
EXTT9=
EXTT10=
EXTT11=
EXTT12=
EXTT13=
EXTT14=
EXTT15=
EXTT16=
EXTT17=
EXTT18=
EXTT19=
EXTT20=
EXTT21=
EXTT22=
EXTT23=
EXTT24=
EXTT25=
EXTT26=
EXTT27=
EXTT28=
EXTT29=
EXTT30=
EXTT31=
EXTT32=
EXTT33=
EXTT34=
EXTT35=
EXTT36=
EXTT37=
EXTT38=
EXTT39=
EXTT40=
EXTT41=
EXTT42=
EXTT43=
EXTT44=
EXTT45=
EXTT46=
EXTT47=
EXTT48=
EXTT49=
EXTT50=
EXTT51=
EXTT52=
EXTT53=
EXTT54=
EXTT55=
EXTT56=
EXTT57=
EXTT58=
EXTT59=
EXTT60=
EXTT61=
EXTT62=
EXTT63=
EXTT64=
EXTT65=
EXTT66=
EXTT67=
EXTT68=
EXTT69=
EXTT70=
EXTT71=
EXTT72=
EXTT73=
EXTT74=
EXTT75=
EXTT76=
EXTT77=
EXTT78=
EXTT79=
EXTT80=
EXTT81=
EXTT82=
EXTT83=
EXTT84=
EXTT85=
EXTT86=
EXTT87=
EXTT88=
EXTT89=
EXTT90=
EXTT91=
EXTT92=
EXTT93=
EXTT94=
EXTT95=
EXTT96=
EXTT97=
EXTT98=
PLAYORDER=
